<?xml version="1.0" standalone="no"?>
<!DOCTYPE svg PUBLIC "-//W3C//DTD SVG 20010904//EN"
 "http://www.w3.org/TR/2001/REC-SVG-20010904/DTD/svg10.dtd">
<svg version="1.0" xmlns="http://www.w3.org/2000/svg"
 width="300.000000pt" height="524.000000pt" viewBox="0 0 300.000000 524.000000"
 preserveAspectRatio="xMidYMid meet">
<metadata>
Created by potrace 1.10, written by Peter Selinger 2001-2011
</metadata>
<g transform="translate(0.000000,524.000000) scale(0.100000,-0.100000)"
fill="#000000" stroke="none">
<path d="M274 5150 c-29 -11 -64 -58 -64 -85 0 -17 -8 -24 -37 -31 -51 -12
-87 -65 -80 -116 3 -25 0 -41 -9 -49 -8 -6 -14 -24 -14 -40 0 -15 -5 -31 -10
-34 -15 -9 -12 -102 5 -134 17 -34 71 -81 92 -81 16 0 15 -8 -3 -112 -5 -34
-3 -41 29 -73 19 -19 44 -35 56 -35 28 0 61 34 61 64 0 34 26 39 54 11 14 -14
29 -25 34 -25 5 0 -19 -29 -54 -65 -79 -81 -145 -210 -170 -334 -21 -108 -15
-272 16 -386 27 -103 105 -261 171 -349 50 -65 146 -147 189 -161 15 -5 20
-15 20 -43 1 -149 193 -256 357 -199 39 13 44 13 80 -8 59 -36 154 -64 229
-69 57 -3 156 -22 224 -44 9 -2 -3 -11 -29 -20 -25 -8 -64 -34 -88 -58 -25
-25 -82 -63 -131 -88 -48 -24 -130 -67 -182 -95 -52 -28 -100 -49 -108 -46
-24 9 -92 -17 -113 -43 -10 -14 -19 -34 -19 -46 0 -14 -16 -31 -48 -52 -112
-74 -251 -213 -316 -315 -17 -27 -137 -91 -237 -126 -64 -23 -64 -48 1 -47 25
0 59 3 75 7 17 4 -3 -9 -43 -28 -84 -40 -90 -60 -19 -59 27 0 43 -4 40 -9 -11
-17 58 27 95 62 21 19 26 26 12 17 -67 -43 -103 -57 -138 -54 l-37 4 40 18
c48 22 125 76 125 88 0 5 -12 2 -28 -5 -29 -16 -152 -34 -139 -21 6 6 59 30
227 100 27 12 43 29 65 72 17 31 61 89 100 128 79 80 254 214 279 214 11 0 37
-110 42 -180 l6 -75 -38 -36 c-22 -19 -82 -55 -134 -78 -52 -24 -103 -50 -113
-59 -13 -11 -21 -12 -28 -5 -15 15 -4 29 28 38 47 11 161 84 188 119 27 36 49
96 35 96 -4 0 -11 -15 -14 -34 -11 -56 -99 -124 -229 -177 -43 -17 -54 -25
-42 -31 21 -12 45 -62 45 -93 0 -14 9 -44 21 -66 29 -58 18 -71 -24 -26 -53
59 -100 53 -215 -25 -44 -31 -112 -49 -112 -30 0 6 31 25 70 43 38 17 77 41
87 51 11 12 -21 -1 -79 -31 -68 -37 -97 -48 -101 -39 -3 10 -9 9 -23 -4 -17
-17 -17 -17 2 -23 10 -4 27 -11 36 -16 33 -17 65 -9 136 37 42 27 89 48 112
51 36 5 43 2 73 -31 32 -34 69 -47 82 -27 3 5 -1 25 -9 43 -8 18 -18 56 -23
83 -6 28 -12 56 -14 64 -3 9 23 25 74 47 44 19 92 43 107 54 l29 20 26 -26
c23 -23 32 -25 68 -20 22 4 57 15 76 25 20 10 61 29 91 43 30 14 76 42 103 62
26 20 49 36 52 36 3 0 5 -27 5 -61 0 -34 7 -91 16 -128 16 -66 16 -68 -7 -112
-21 -40 -23 -55 -20 -164 2 -116 25 -257 56 -344 8 -25 10 -43 3 -54 -5 -9
-12 -52 -16 -94 l-7 -78 -35 3 c-25 2 -42 12 -62 37 -16 18 -42 36 -58 40 -17
4 -30 13 -30 22 0 25 31 83 62 114 25 24 37 29 80 29 61 0 56 11 -10 21 -26 4
-65 14 -87 23 -51 19 -135 20 -180 2 -51 -22 -59 -45 -51 -153 6 -90 2 -105
-21 -82 -8 8 -13 7 -18 -1 -4 -6 -2 -17 4 -23 8 -8 6 -16 -8 -31 -27 -31 -41
-81 -41 -153 0 -73 19 -126 50 -143 32 -17 104 -17 125 0 28 23 67 90 61 106
-3 7 -1 16 4 19 5 3 11 -3 15 -14 12 -40 46 -71 76 -71 34 0 38 17 7 29 -13 5
-31 18 -42 30 -10 11 -22 18 -27 15 -4 -2 -7 13 -6 35 1 39 2 40 22 23 20 -17
20 -17 2 4 -18 21 -23 39 -9 30 5 -3 29 15 53 40 39 40 48 44 76 39 18 -3 43
-16 56 -29 13 -13 40 -29 59 -36 34 -13 35 -15 31 -51 -5 -32 -1 -42 23 -67
16 -15 36 -33 45 -38 11 -6 29 -73 58 -218 l43 -209 -21 -38 c-12 -21 -28 -73
-35 -116 l-14 -77 27 -26 c87 -88 463 -133 592 -71 85 41 86 107 2 142 -27 11
-60 27 -75 35 -25 14 -31 13 -63 -2 -20 -9 -40 -25 -46 -35 -5 -11 -16 -19
-24 -19 -8 0 -15 -9 -15 -20 0 -30 18 -24 66 20 24 22 50 40 58 40 9 0 41 -12
73 -26 l58 -25 -22 -18 c-12 -10 -52 -27 -89 -37 -60 -16 -81 -17 -198 -7
-143 13 -220 34 -237 65 -6 12 -9 41 -6 66 3 31 2 40 -4 30 -5 -9 -11 -31 -13
-48 -4 -40 -12 -46 -32 -29 -18 15 -15 79 6 134 12 29 12 29 20 8 11 -26 39
-43 77 -44 l28 -1 -25 -8 -25 -7 30 -7 c17 -4 40 -12 53 -17 28 -11 32 -11 32
-1 0 5 -11 14 -25 20 -14 6 -25 18 -25 26 0 9 -6 13 -15 10 -26 -10 -85 16
-90 39 -2 12 -23 110 -45 217 -23 107 -44 206 -47 218 l-6 24 34 -18 c26 -14
56 -19 129 -19 52 0 107 3 122 8 l27 7 -5 -177 c-6 -209 -8 -223 -33 -223 -10
0 -29 -9 -42 -21 l-24 -21 25 16 c13 9 38 16 55 16 l30 0 0 67 c0 38 1 132 3
210 l2 141 35 20 c38 23 55 64 37 93 -7 10 -9 31 -6 46 3 15 1 39 -4 53 -8 21
-3 34 33 85 49 69 152 249 219 382 36 73 55 99 87 120 l41 27 -6 101 c-3 55
-17 149 -31 209 -14 60 -23 111 -21 114 2 2 24 -9 48 -25 33 -21 55 -28 96
-28 47 0 57 4 78 28 13 15 24 35 24 44 0 9 6 13 15 9 9 -3 45 -11 80 -18 41
-7 65 -16 65 -25 0 -7 31 -43 69 -80 38 -38 71 -75 73 -83 4 -13 8 -12 27 4
27 24 26 39 -4 105 -18 37 -22 58 -15 65 17 17 107 12 128 -7 21 -19 107 -24
117 -6 4 5 -27 44 -69 84 -70 68 -79 74 -109 68 -50 -9 -56 -23 -10 -23 23 0
48 -3 57 -6 29 -11 17 -24 -21 -24 -21 0 -45 -5 -53 -10 -11 -7 -3 -10 31 -10
45 0 149 -42 149 -61 0 -14 -25 -11 -92 12 -70 23 -145 19 -155 -8 -3 -8 6
-40 20 -69 15 -30 27 -61 27 -69 0 -26 -20 -26 -30 0 -6 15 -37 53 -70 86 -45
44 -60 66 -60 86 0 27 -2 28 -49 29 -28 0 -48 -3 -45 -8 3 -4 14 -8 24 -8 10
0 22 -5 26 -12 5 -8 0 -9 -17 -5 -13 4 -38 7 -54 7 l-31 0 1 100 c0 88 5 118
17 92 2 -4 32 -22 68 -39 54 -27 71 -31 100 -25 19 5 57 6 83 4 43 -4 46 -6
30 -18 -16 -12 -13 -13 26 -14 37 0 42 2 31 15 -24 29 -136 45 -185 26 -14 -6
-34 0 -65 17 -98 55 -117 70 -123 100 -6 31 -66 77 -90 69 -6 -2 -31 13 -55
34 -65 57 -207 152 -289 193 -40 20 -73 41 -73 46 0 5 -12 16 -27 24 -26 14
-26 15 -6 16 12 0 55 12 95 26 257 91 428 289 429 496 1 103 -32 161 -139 250
-21 17 -32 35 -32 51 0 14 -4 37 -10 52 -9 23 -6 30 30 64 42 40 59 81 18 44
-30 -27 -68 -46 -76 -39 -3 4 3 13 15 21 23 16 47 68 40 87 -3 8 -9 3 -15 -13
-11 -27 -55 -62 -66 -52 -8 8 14 34 23 28 14 -8 3 100 -18 180 -12 44 -32 101
-45 127 l-25 47 27 -5 c30 -6 87 30 76 47 -4 6 -13 4 -23 -5 -22 -20 -51 -20
-77 -1 -18 14 -17 14 15 15 24 0 42 9 68 35 32 32 35 39 31 82 -3 27 -8 57
-12 68 -6 15 -1 13 18 -8 34 -37 36 -100 4 -134 -12 -13 -18 -26 -14 -30 4 -5
21 7 37 25 39 43 41 107 4 150 l-24 29 29 22 c34 25 70 89 70 124 0 33 -36 77
-63 77 l-22 0 22 -18 c45 -35 46 -108 3 -147 -21 -19 -21 -19 -11 9 17 43 13
87 -12 130 -28 50 -77 79 -131 79 l-41 -1 4 44 c2 31 -3 54 -18 79 -16 28 -18
41 -10 62 14 39 -6 90 -43 109 -23 12 -45 14 -81 10 -54 -8 -107 -30 -107 -46
0 -13 10 -12 40 5 14 8 48 14 77 15 44 0 55 -4 73 -27 27 -34 24 -79 -5 -75
-11 2 -34 6 -51 9 -17 2 -47 -2 -68 -11 -36 -15 -37 -15 -45 7 -32 83 -148 83
-221 0 l-31 -35 -24 22 c-19 18 -31 21 -60 16 -20 -4 -45 -16 -56 -27 -20 -20
-26 -69 -9 -69 6 0 10 11 10 25 0 53 73 53 86 0 11 -46 -13 -82 -70 -104 -50
-19 -52 -19 -141 1 -117 26 -300 21 -387 -10 -64 -23 -79 -13 -23 14 37 17 65
58 65 93 0 11 -13 35 -28 53 -15 18 -33 45 -40 61 -6 15 -16 27 -22 27 -5 0
-10 10 -10 23 0 46 -59 97 -112 97 -15 0 -29 11 -40 30 -26 45 -79 65 -136 50
-38 -9 -47 -8 -62 5 -30 27 -97 31 -129 8 -26 -20 -27 -20 -50 -2 -25 21 -35
22 -67 9z m61 -20 c4 -6 -7 -10 -26 -10 -20 0 -42 -9 -56 -22 -13 -12 -23 -17
-23 -10 0 32 89 68 105 42z m173 -26 c20 -9 63 -17 96 -17 53 -2 61 -5 86 -35
19 -23 42 -37 71 -43 51 -12 69 -25 69 -50 0 -16 35 -75 86 -146 20 -28 12
-54 -32 -95 -30 -29 -47 -70 -26 -67 4 1 21 0 37 -1 25 -2 22 -4 -20 -14 -50
-12 -50 -12 50 -13 121 0 280 -38 395 -92 95 -44 99 -46 75 -25 -58 48 -238
109 -378 129 -31 4 -47 11 -44 18 3 8 34 12 98 11 76 -1 117 -8 217 -38 68
-20 127 -36 130 -35 18 1 -162 62 -233 79 l-80 18 75 -5 c41 -2 91 -11 110
-18 109 -40 194 -23 254 50 20 24 36 52 36 63 0 27 105 106 132 99 11 -3 28
-1 38 5 15 10 23 5 50 -26 26 -29 38 -36 57 -31 28 7 30 -6 3 -23 -36 -22 -21
-30 19 -10 38 18 42 19 74 3 45 -21 61 -59 55 -130 l-5 -55 19 30 c15 26 21
29 37 20 11 -5 32 -10 47 -10 15 0 25 -3 21 -6 -3 -3 7 -17 22 -30 55 -46 64
-120 22 -171 -20 -25 -37 -31 -25 -10 4 6 -4 2 -18 -10 -32 -30 -48 -29 -20 0
13 13 26 37 31 54 26 90 -58 164 -136 120 -20 -11 -17 -12 23 -12 39 0 50 -5
76 -34 24 -27 29 -39 24 -65 -8 -44 -66 -95 -100 -89 -32 6 -35 -13 -3 -21 28
-7 81 7 123 33 69 42 82 145 27 203 -24 27 -25 29 -5 19 36 -19 55 -58 57
-117 2 -46 -2 -60 -28 -94 -24 -34 -28 -47 -24 -77 9 -53 -14 -99 -59 -118
-41 -17 -64 -14 -64 9 0 8 -9 18 -20 21 -11 3 -20 13 -20 21 0 30 -30 72 -64
88 -39 18 -46 19 -46 7 0 -5 13 -11 30 -14 26 -6 70 -54 70 -78 0 -10 -152 -1
-159 9 -3 4 -33 14 -66 21 -33 7 -68 17 -77 22 -14 8 -18 6 -18 -7 0 -11 -8
-6 -22 16 -23 32 -68 59 -68 40 0 -6 6 -10 13 -10 21 0 46 -32 53 -68 5 -26 1
-36 -24 -62 -42 -41 -97 -42 -136 -1 l-27 29 -25 -25 c-19 -19 -33 -24 -58
-21 -18 2 -38 -2 -45 -9 -22 -24 -71 7 -71 46 0 60 79 131 145 131 44 0 85
-27 85 -56 0 -14 4 -22 10 -19 18 11 11 53 -12 69 -36 26 -118 21 -162 -9 -21
-14 -43 -25 -49 -24 -40 5 -64 -5 -104 -46 -24 -25 -50 -45 -57 -45 -19 0 -63
-51 -70 -83 -9 -36 17 -91 50 -106 31 -14 64 -14 64 -1 0 6 -9 10 -21 10 -32
0 -79 53 -79 90 0 61 81 109 94 55 3 -13 15 -29 26 -35 23 -13 27 2 5 20 -43
36 3 130 63 130 l30 0 -19 -37 c-24 -47 -24 -54 1 -86 26 -33 25 -53 -4 -82
-13 -13 -19 -26 -13 -28 20 -6 -2 -38 -38 -52 -40 -17 -83 -19 -120 -5 -59 22
-81 21 -93 -5 -6 -13 -22 -31 -36 -40 -23 -16 -26 -15 -54 5 -30 22 -81 25
-124 6 -16 -7 -18 -3 -18 31 0 63 33 87 126 91 72 4 77 3 106 -24 26 -25 29
-26 19 -7 -36 69 -197 70 -244 2 -15 -20 -19 -21 -41 -9 -46 24 -97 72 -92 86
7 18 -14 30 -24 14 -13 -21 28 -66 85 -96 43 -23 51 -31 47 -50 -2 -12 0 -30
6 -40 7 -12 5 -25 -7 -45 -17 -30 -8 -79 18 -87 8 -3 11 0 7 7 -4 6 -3 11 3
11 23 0 32 -39 16 -70 -30 -58 -140 -62 -181 -7 -9 12 -14 16 -12 8 2 -8 17
-24 32 -35 27 -21 90 -27 131 -12 18 6 20 3 20 -25 0 -29 4 -34 43 -47 52 -17
78 -51 63 -81 -28 -51 -90 -65 -133 -31 l-25 19 5 -27 c3 -15 7 -21 10 -14 5
16 22 5 22 -14 0 -8 -4 -12 -10 -9 -5 3 -10 2 -10 -4 0 -5 20 -24 45 -41 63
-44 70 -60 46 -114 -20 -42 -55 -66 -98 -66 -33 0 -81 33 -101 69 -26 45 -28
85 -7 125 9 16 13 31 11 33 -10 10 -36 -58 -36 -92 0 -110 94 -173 195 -131
34 15 35 14 35 -9 0 -13 11 -37 25 -53 22 -26 23 -31 9 -50 -16 -23 -35 -22
-82 2 -79 41 -158 26 -206 -37 -24 -31 -31 -35 -51 -27 -56 21 -147 116 -208
217 -55 92 -93 183 -75 183 7 0 5 7 -4 18 -46 51 -76 204 -62 312 l7 55 26
-77 c14 -43 36 -90 48 -105 19 -23 17 -17 -8 40 -36 79 -48 171 -30 244 29
118 99 262 155 316 42 39 41 61 -1 93 -29 22 -49 29 -86 30 -38 1 -53 6 -71
25 -12 13 -20 31 -18 41 2 9 -23 42 -62 81 -70 68 -75 82 -54 146 16 52 37 98
39 86 2 -12 19 73 20 98 0 9 6 17 14 17 7 0 21 7 29 16 9 8 16 13 16 9 0 -4 7
0 15 9 8 8 15 19 15 24 0 6 7 13 16 16 15 6 15 4 3 -11 -7 -10 -2 -8 12 5 14
12 30 22 36 22 6 0 16 7 23 15 17 20 30 19 30 -2 1 -16 3 -15 18 3 31 37 72
43 130 18z m-311 -623 c7 -11 28 -24 47 -31 36 -11 42 -23 30 -54 -17 -44
-104 17 -104 73 0 35 10 40 27 12z m1606 -209 c18 -11 27 -24 27 -42 0 -27 30
-62 63 -73 26 -9 80 16 103 47 l19 27 32 -45 c44 -63 90 -171 108 -256 19 -89
19 -82 -6 -109 l-21 -22 -23 21 c-14 14 -42 24 -69 27 -40 5 -48 2 -75 -24
-17 -18 -33 -46 -37 -69 -10 -52 9 -155 39 -216 l25 -49 -25 23 c-36 33 -62
90 -73 156 l-9 57 3 -61 c2 -35 12 -77 25 -101 22 -44 67 -86 82 -77 5 3 9 1
9 -5 0 -18 40 -23 63 -8 12 7 47 23 77 34 30 11 63 24 72 28 13 5 32 -8 74
-51 91 -93 111 -164 80 -280 -60 -227 -307 -403 -622 -445 -224 -30 -540 48
-696 172 -35 28 -38 28 -47 10 -13 -23 -63 -47 -129 -62 -131 -28 -277 61
-297 180 -5 31 -1 50 19 90 14 27 35 55 45 61 34 18 97 11 147 -15 52 -27 75
-26 112 8 37 34 25 97 -20 97 -14 0 -18 8 -18 38 0 20 7 46 15 56 31 41 5 101
-54 126 -16 6 -32 18 -35 26 -4 11 6 14 50 12 48 -2 59 1 75 21 11 13 19 36
19 51 0 30 -34 80 -54 80 -7 0 -25 9 -40 21 -20 15 -26 29 -26 57 0 33 7 44
67 97 36 33 91 84 121 113 51 48 56 51 73 36 10 -9 35 -18 56 -21 94 -12 181
47 168 114 -6 31 -4 35 29 48 20 8 46 15 58 15 13 0 36 7 52 15 27 14 30 14
63 -15 26 -23 43 -30 76 -30 71 0 137 58 137 120 0 19 4 21 33 15 17 -4 44
-15 60 -23z m187 -32 c13 -8 11 -13 -10 -34 -14 -14 -39 -28 -57 -32 -26 -5
-37 -1 -57 19 -45 45 -35 57 42 57 37 0 74 -5 82 -10z m-1087 -248 c9 -8 17
-27 17 -41 -1 -25 -1 -25 -15 -7 -11 14 -15 16 -15 5 0 -18 -47 -69 -64 -69
-8 0 -19 7 -26 15 -7 8 -18 15 -25 15 -20 0 -26 29 -12 58 22 47 98 60 140 24z
m1182 -202 c59 -37 123 -153 125 -227 0 -11 -48 -43 -64 -43 -2 0 -1 14 4 31
17 57 -17 151 -64 182 -38 25 -88 22 -116 -8 -13 -14 -25 -23 -27 -21 -9 9 27
75 48 90 31 21 55 20 94 -4z m-40 -70 c3 -5 -3 -10 -13 -10 -31 0 -61 -32 -70
-75 l-9 -40 -7 32 c-9 41 6 71 47 88 39 17 44 18 52 5z m59 -36 c12 -31 7 -45
-16 -42 -31 4 -40 58 -10 58 11 0 23 -7 26 -16z m-59 -51 c40 -44 46 -73 13
-73 -34 0 -68 38 -68 77 0 43 12 42 55 -4z m79 -74 c-5 -18 -16 -35 -24 -39
-53 -27 -70 -32 -84 -27 -17 7 -41 42 -51 76 l-7 24 23 -22 c13 -13 36 -32 51
-42 l28 -20 25 25 c17 18 25 36 26 63 0 35 1 36 11 16 7 -15 8 -34 2 -54z
m-244 -834 c23 -25 60 -140 60 -187 0 -25 -3 -28 -35 -28 -20 0 -72 12 -116
26 -64 22 -79 30 -73 43 24 57 33 91 34 128 0 40 2 42 33 45 50 5 73 -2 97
-27z m-140 -15 c0 -17 -9 -53 -19 -81 -22 -55 -81 -159 -92 -159 -11 0 -107
173 -118 215 -6 22 -11 45 -11 50 0 6 45 9 120 7 l120 -3 0 -29z m-243 -23 c7
-32 34 -90 68 -148 32 -52 58 -95 60 -97 1 -2 21 25 44 60 22 35 41 57 41 49
0 -17 -88 -141 -100 -141 -5 0 -38 23 -74 50 l-66 51 -70 -56 -70 -56 -11 28
c-7 15 -12 63 -13 105 -1 63 3 81 20 105 12 15 26 28 32 28 6 0 14 4 19 9 5 5
2 6 -6 1 -10 -5 -12 -4 -7 4 8 12 95 60 111 61 6 0 16 -24 22 -53z m539 -56
c139 -83 266 -187 281 -231 7 -19 12 -73 12 -120 1 -96 -17 -146 -66 -192
l-29 -28 -43 28 c-42 26 -44 30 -90 172 -44 133 -81 220 -145 340 -29 54 -41
90 -29 90 5 0 54 -27 109 -59z m-745 -93 c1 -74 17 -139 36 -145 6 -2 41 19
78 47 l67 50 60 -45 c33 -25 68 -45 78 -45 18 0 78 72 100 122 l12 26 43 -19
c63 -28 140 -41 171 -29 23 9 26 14 20 43 l-6 32 20 -34 c85 -138 204 -554
225 -788 l6 -72 -53 -40 c-71 -54 -157 -90 -248 -107 -210 -38 -394 3 -581
128 -101 67 -102 71 -63 159 27 59 27 59 10 118 -9 32 -19 95 -23 140 -3 45
-8 81 -10 81 -2 0 -27 -18 -55 -41 -51 -40 -138 -89 -158 -89 -5 0 -10 23 -10
53 0 76 -17 171 -48 263 l-27 82 120 63 c66 35 143 76 170 91 28 14 53 27 58
27 4 1 7 -32 8 -71z m1100 -143 c21 -34 23 -211 2 -270 -20 -56 -46 -75 -107
-75 l-39 0 41 44 c24 26 43 59 47 79 9 44 1 236 -9 260 -8 17 -7 17 22 0 16
-9 36 -26 43 -38z m-1466 5 c26 -50 64 -208 71 -295 l7 -83 -41 -21 c-46 -23
-105 -30 -84 -9 16 16 15 195 -2 275 -7 34 -23 78 -35 99 -24 41 -25 39 9 53
42 16 59 12 75 -19z m-54 -383 c-6 -15 -15 -27 -21 -27 -22 0 -21 31 2 58 18
23 24 25 26 12 2 -9 -2 -28 -7 -43z m427 -393 c26 -14 52 -30 57 -34 6 -4 17
-7 26 -7 26 1 129 -44 129 -56 0 -13 -47 -76 -79 -105 -32 -29 -123 -92 -133
-92 -19 0 -6 41 19 57 35 24 83 73 83 85 0 5 -12 -4 -26 -22 -26 -30 -72 -60
-94 -60 -5 0 -10 15 -10 33 0 17 -5 50 -10 72 -13 59 -23 155 -15 155 3 0 27
-12 53 -26z m256 -100 c39 -15 -27 -123 -111 -181 -47 -32 -112 -62 -135 -63
-5 0 -8 8 -8 18 0 9 19 28 42 42 81 50 121 88 178 169 8 11 15 21 16 21 1 0 9
-3 18 -6z m483 -37 c-12 -19 -51 -88 -87 -155 -44 -82 -71 -122 -82 -122 -10
0 -15 -5 -12 -13 2 -7 -4 -21 -15 -31 -20 -18 -21 -18 -30 5 -29 76 -111 305
-111 311 0 11 190 14 193 3 2 -6 32 -1 73 11 94 29 97 29 71 -9z m-371 0 c7
-7 40 -95 73 -197 66 -194 81 -279 55 -301 -11 -9 -12 -14 -3 -20 20 -12 -47
-46 -113 -58 -103 -18 -205 14 -266 84 -18 19 -35 47 -38 60 -3 14 -10 22 -16
19 -5 -3 -7 -13 -4 -23 5 -14 4 -14 -6 -1 -7 8 -19 15 -25 16 -44 3 -43 2 -42
77 l0 72 19 -40 c10 -22 23 -53 29 -68 7 -18 15 -25 23 -21 9 6 9 9 1 11 -7 3
-9 11 -6 20 5 12 3 14 -7 8 -8 -5 -11 -4 -7 2 4 6 0 33 -8 59 -23 75 -21 80
34 99 91 30 176 105 208 183 17 42 19 43 53 37 19 -4 40 -12 46 -18z m-712
-129 c-9 -18 -21 -68 -25 -110 -4 -42 -12 -85 -19 -95 -7 -13 -10 -14 -9 -3 2
8 -1 45 -5 82 -10 86 -3 114 37 138 17 11 33 20 35 20 1 0 -5 -15 -14 -32z
m149 1 c12 -7 23 -13 25 -14 2 -2 -13 -24 -32 -50 -20 -26 -39 -57 -42 -71 -5
-19 -13 -24 -39 -24 -18 0 -40 -3 -49 -6 -32 -12 -14 135 20 169 11 11 93 8
117 -4z m-52 -205 c8 -8 21 -14 27 -14 17 0 52 -41 52 -60 0 -9 -9 -25 -21
-36 -17 -16 -22 -16 -29 -4 -8 12 -10 10 -10 -7 0 -12 -4 -25 -10 -28 -5 -3
-10 -17 -10 -31 0 -14 -7 -32 -16 -41 -8 -9 -12 -23 -9 -31 4 -12 0 -11 -17 4
-13 10 -25 22 -28 25 -9 10 -50 18 -44 8 3 -5 11 -9 18 -9 7 0 23 -11 35 -24
21 -23 22 -26 7 -54 -28 -53 -72 -50 -96 8 -28 67 14 224 62 232 13 2 2 6 -26
9 l-49 4 -24 -52 c-32 -70 -39 -145 -20 -202 l16 -44 -21 20 c-15 16 -22 38
-25 90 -6 80 9 146 41 178 18 18 21 26 12 35 -8 8 -4 9 17 1 44 -17 77 -14 77
7 0 42 52 51 91 16z m-175 -196 c-6 -35 -12 -55 -14 -44 -5 25 8 106 17 106 4
0 2 -28 -3 -62z m661 -53 c42 -13 69 -16 112 -10 31 5 68 9 83 9 14 1 24 4 22
7 -5 9 66 22 74 15 3 -3 -14 -24 -37 -46 -51 -46 -124 -66 -210 -56 -66 8 -84
21 -57 42 11 8 16 14 11 14 -5 0 -16 -7 -26 -16 -17 -15 -20 -14 -48 5 -45 32
-81 80 -81 107 0 23 1 23 51 -15 29 -22 76 -47 106 -56z m76 -739 c153 -50
365 -53 458 -6 22 12 43 19 46 16 11 -10 -22 -39 -67 -60 -65 -30 -267 -29
-394 2 -113 28 -186 67 -186 99 0 12 7 10 33 -5 17 -12 67 -32 110 -46z"/>
<path d="M410 5079 c0 -9 9 -24 20 -34 26 -23 26 -4 0 26 -15 18 -19 20 -20 8z"/>
<path d="M240 4979 c0 -8 5 -20 12 -27 15 -15 64 -16 73 -2 4 6 -5 10 -21 10
-15 0 -36 7 -46 17 -15 13 -18 14 -18 2z"/>
<path d="M490 4788 c0 -14 49 -33 60 -22 6 6 -4 13 -25 20 -19 6 -35 7 -35 2z"/>
<path d="M1870 4760 c-14 -26 0 -26 42 0 l33 20 -32 0 c-22 0 -36 -6 -43 -20z"/>
<path d="M1907 4743 c-4 -3 6 -14 22 -24 17 -10 31 -30 36 -50 l9 -34 4 40 c3
32 -1 43 -18 57 -23 19 -42 23 -53 11z"/>
<path d="M633 4693 c17 -10 4 -21 -32 -27 -52 -8 -105 -66 -115 -126 -5 -33
-3 -47 8 -59 14 -13 19 -13 51 2 39 19 55 15 55 -11 0 -21 17 -48 25 -41 3 4
1 19 -5 35 -10 25 -8 31 16 53 l27 26 66 -69 c87 -90 201 -176 233 -176 7 0
-7 14 -32 30 -106 69 -167 118 -208 169 -46 56 -46 84 -1 60 41 -21 151 -110
232 -188 90 -87 103 -85 20 3 -59 61 -91 88 -197 164 -42 30 -54 43 -43 47 21
9 93 -12 113 -32 15 -15 16 -15 12 3 -3 16 -30 29 -97 43 -2 1 2 8 9 16 18 22
-13 50 -71 63 -24 5 -51 12 -59 14 -8 3 -12 3 -7 1z m111 -56 l30 -13 -50 -21
c-27 -12 -86 -44 -131 -71 l-83 -50 0 32 c0 43 36 96 80 118 40 21 112 23 154
5z"/>
<path d="M1612 4561 c-61 -16 -109 -80 -98 -134 7 -33 23 -57 38 -57 5 0 2 7
-6 16 -48 47 -20 130 52 153 58 18 105 8 136 -30 33 -39 35 -95 5 -133 -26
-33 -10 -34 21 -2 15 17 23 38 24 64 2 86 -81 145 -172 123z"/>
<path d="M2010 4560 c8 -5 23 -10 33 -10 22 0 40 -45 35 -89 -4 -29 -3 -31 9
-15 27 37 14 88 -28 109 -33 17 -74 21 -49 5z"/>
<path d="M905 4521 c-3 -5 -1 -12 5 -16 5 -3 10 -4 10 0 0 3 15 -2 33 -11 l32
-17 -24 27 c-25 27 -45 33 -56 17z"/>
<path d="M1637 4523 c-4 -3 -7 -12 -7 -19 0 -10 6 -11 25 -4 16 6 34 6 50 0
34 -13 31 -4 -5 15 -31 16 -53 19 -63 8z"/>
<path d="M1662 4482 c-9 -3 -4 -10 14 -21 15 -9 33 -32 40 -51 l12 -35 1 41
c1 23 -5 46 -11 51 -19 15 -41 21 -56 15z"/>
<path d="M552 4463 c-8 -21 -7 -133 2 -169 6 -21 3 -24 -21 -24 -27 -1 -27 -1
-8 -15 35 -27 40 -13 40 108 0 64 -1 117 -3 117 -1 0 -6 -8 -10 -17z"/>
<path d="M481 4376 c-13 -53 -15 -159 -2 -136 7 13 22 180 16 180 -2 0 -8 -20
-14 -44z"/>
<path d="M630 4408 c15 -17 54 -81 55 -90 0 -3 4 -10 9 -15 5 -5 6 -3 2 5 -13
22 10 13 35 -14 39 -42 179 -116 179 -95 0 5 -11 12 -24 15 -35 9 -181 120
-218 167 -17 21 -35 39 -40 39 -5 0 -4 -6 2 -12z"/>
<path d="M408 4363 c-40 -41 -67 -97 -88 -181 -9 -33 -17 -47 -22 -40 -4 8 -8
-6 -8 -32 0 -49 15 -87 24 -60 5 17 17 80 22 122 6 47 41 126 79 178 20 27 35
50 33 50 -2 0 -20 -17 -40 -37z"/>
<path d="M1570 4350 c0 -5 9 -14 20 -20 33 -18 26 -58 -12 -75 l-33 -14 31 -1
c16 0 35 5 42 12 19 19 14 65 -10 88 -24 22 -38 26 -38 10z"/>
<path d="M618 4254 c3 -16 7 -21 12 -14 5 9 17 9 44 2 20 -6 36 -9 36 -7 0 7
-72 45 -84 45 -9 0 -12 -9 -8 -26z"/>
<path d="M465 4210 c-3 -5 -13 -6 -22 -3 -13 5 -13 3 2 -20 23 -35 35 -34 35
3 0 31 -4 37 -15 20z"/>
<path d="M383 4192 c-21 -3 -21 -4 -4 -21 10 -10 21 -25 23 -32 10 -26 19 -1
11 27 -6 22 -13 28 -30 26z"/>
<path d="M500 4177 c0 -39 108 -167 140 -167 19 0 10 18 -17 35 -31 19 -54 45
-84 90 -28 45 -25 55 13 44 44 -12 48 -11 18 6 -40 23 -70 19 -70 -8z"/>
<path d="M437 4093 c-4 -3 -7 -21 -7 -39 0 -18 -3 -39 -6 -48 -9 -25 -43 -19
-56 9 -14 31 -22 31 -42 -1 -13 -18 -18 -53 -20 -127 -3 -91 -3 -94 3 -27 4
41 8 67 9 58 3 -32 53 -142 77 -173 36 -45 40 -24 5 31 -41 65 -70 146 -70
195 0 22 3 39 8 37 4 -2 19 -10 34 -17 37 -19 55 -9 68 38 8 32 16 41 33 41
21 1 22 1 3 15 -22 17 -29 18 -39 8z"/>
<path d="M480 4023 c0 -30 22 -69 39 -69 17 0 16 4 -7 36 -15 19 -27 37 -29
39 -2 2 -3 0 -3 -6z"/>
<path d="M820 3692 c0 -5 7 -16 16 -23 9 -7 20 -22 25 -34 7 -17 8 -16 6 9 -2
26 -47 73 -47 48z"/>
<path d="M1345 4068 c-39 -39 -56 -62 -40 -50 35 24 129 122 117 122 -4 0 -39
-32 -77 -72z"/>
<path d="M1910 4097 c-18 -9 -26 -22 -28 -48 -4 -47 18 -67 54 -50 42 19 128
14 158 -10 22 -17 26 -18 26 -4 0 26 -82 99 -126 113 -51 15 -53 15 -84 -1z
m95 -17 c7 -11 -16 -11 -60 0 -28 7 -28 8 12 9 23 0 45 -3 48 -9z m-35 -30
c-20 -13 -60 -13 -60 0 0 6 17 10 38 10 27 0 33 -3 22 -10z"/>
<path d="M1336 3985 c-115 -41 -226 -161 -266 -288 -16 -52 -6 -58 18 -10 28
54 122 140 187 169 30 14 81 28 112 31 87 8 118 48 73 93 -23 23 -68 25 -124
5z m-14 -35 c-35 -16 -91 -56 -124 -87 -44 -41 -55 -48 -39 -26 40 59 165 143
210 143 9 0 -12 -13 -47 -30z m118 6 c0 -15 -67 -46 -99 -46 -10 0 -44 -13
-75 -29 -44 -22 -53 -24 -39 -9 25 27 75 57 135 78 64 23 78 24 78 6z"/>
<path d="M1190 3974 c-25 -7 -63 -13 -86 -13 -85 -2 -202 -136 -187 -214 8
-40 19 -41 15 -1 -6 51 14 88 78 148 53 49 63 53 116 58 33 3 75 13 94 21 42
18 31 19 -30 1z"/>
<path d="M1945 3875 c-14 -13 -25 -28 -25 -34 0 -5 13 4 29 20 31 31 60 36
108 19 26 -9 27 -9 9 5 -31 24 -93 19 -121 -10z"/>
<path d="M1314 3737 c-45 -24 -94 -61 -94 -71 0 -3 21 9 48 28 107 76 185 74
278 -5 21 -19 32 -25 24 -14 -17 23 -54 55 -84 72 -35 20 -126 15 -172 -10z"/>
<path d="M959 3663 c19 -37 13 -75 -16 -105 -34 -36 -15 -37 21 -2 32 32 34
73 5 105 -19 23 -20 23 -10 2z"/>
<path d="M1355 3668 c-16 -6 -44 -21 -62 -34 -34 -26 -58 -29 -97 -14 -35 13
-34 -5 2 -27 15 -9 28 -18 30 -19 2 -1 -2 -12 -8 -24 -11 -20 -18 -22 -61 -18
-61 6 -61 -9 -1 -37 23 -11 42 -25 42 -32 0 -19 -34 -33 -82 -33 l-43 -1 24
-19 c15 -13 38 -20 66 -20 41 0 44 -2 55 -34 6 -19 29 -55 51 -80 33 -37 44
-44 62 -37 42 15 146 12 179 -4 l33 -16 -25 22 c-21 18 -34 20 -84 17 -47 -4
-55 -2 -35 6 89 37 246 109 253 117 6 5 9 38 9 73 -1 84 -39 157 -102 198 -38
24 -55 28 -110 27 -37 0 -79 -5 -96 -11z m185 -28 c12 -7 8 -10 -15 -10 -40 0
-90 -32 -110 -69 -19 -38 -20 -133 0 -171 8 -15 29 -39 46 -53 l31 -24 -28
-11 c-16 -6 -55 -20 -88 -32 l-59 -21 -28 27 c-39 37 -56 118 -40 190 20 88
76 149 161 175 36 11 113 10 130 -1z m24 -30 c41 -15 23 -36 -28 -32 -38 3
-46 0 -69 -28 -40 -48 -37 -89 13 -140 21 -22 46 -40 54 -40 25 0 74 49 81 80
8 36 25 30 25 -9 0 -35 -24 -57 -90 -81 -38 -14 -58 -17 -71 -9 -52 27 -72
153 -33 206 11 15 36 36 55 45 40 21 32 20 63 8z m-34 -75 c0 -13 14 -40 30
-59 29 -33 30 -34 12 -56 -15 -19 -22 -21 -39 -12 -38 21 -74 72 -67 96 16 52
64 76 64 31z m98 -1 c4 -25 -20 -47 -42 -38 -16 6 -22 45 -9 58 14 14 48 1 51
-20z"/>
<path d="M931 3469 c16 -23 20 -39 16 -67 -6 -34 -5 -35 8 -18 21 28 19 59 -6
90 -29 37 -45 33 -18 -5z"/>
<path d="M1864 3431 c-23 -10 -45 -24 -48 -30 -10 -15 -6 -14 39 9 41 21 105
20 133 -2 36 -30 -8 -94 -72 -105 -42 -7 -59 -23 -24 -23 76 1 144 72 120 126
-21 45 -81 55 -148 25z"/>
<path d="M1890 3380 c0 -25 72 -31 87 -7 4 6 -4 8 -21 3 -14 -3 -35 -2 -46 4
-14 8 -20 8 -20 0z"/>
<path d="M959 3329 c26 -45 26 -75 1 -117 -28 -46 -25 -71 15 -128 78 -109
273 -224 450 -263 87 -20 98 -21 205 -25 109 -5 103 -3 -64 15 -220 24 -426
116 -547 246 -76 81 -84 108 -44 155 34 41 32 80 -6 120 l-31 33 21 -36z"/>
<path d="M2122 3335 c4 -4 1 -20 -7 -36 -39 -75 -159 -119 -344 -127 -112 -4
-123 -3 -118 12 10 25 -6 19 -40 -16 -41 -44 -53 -70 -52 -110 1 -33 1 -33 8
-5 l6 29 35 -54 c42 -64 97 -102 176 -123 129 -33 246 22 300 143 19 40 54
211 54 258 0 4 9 -1 20 -11 11 -10 22 -16 25 -13 3 3 -11 18 -32 33 -21 16
-35 25 -31 20z m-28 -168 c-7 -48 -41 -139 -57 -149 -6 -4 -19 -2 -29 3 -11 6
-27 9 -36 6 -9 -2 -30 3 -45 10 -41 20 -114 17 -177 -7 -85 -33 -84 -33 -109
0 -32 45 -23 60 31 50 67 -13 197 -3 267 19 67 21 121 62 121 92 0 17 19 30
33 22 4 -2 4 -23 1 -46z m-84 1 c-41 -34 -128 -52 -245 -53 -60 0 -123 4 -138
8 -54 15 -15 27 86 27 119 0 215 14 272 39 45 20 61 8 25 -21z m-102 -144 c12
-8 22 -19 22 -23 0 -8 -29 -19 -71 -27 -23 -5 -61 -22 -81 -36 -14 -10 -26 -8
-65 11 l-48 23 30 16 c42 22 135 51 165 51 14 1 36 -6 48 -15z m97 -49 c0 -30
-67 -59 -147 -63 -46 -3 -68 -1 -68 7 0 6 3 11 8 12 57 5 79 11 124 38 59 34
83 36 83 6z"/>
<path d="M1325 3209 c-39 -34 -53 -56 -66 -101 -6 -21 -5 -28 4 -25 7 2 11 12
9 22 -4 19 26 57 39 49 5 -3 6 2 3 11 -4 10 6 26 27 45 19 16 31 30 27 30 -4
0 -23 -14 -43 -31z"/>
<path d="M654 3152 c-27 -18 -35 -51 -20 -84 l15 -33 -6 42 c-5 36 -2 43 21
58 32 21 93 13 131 -17 23 -18 26 -25 20 -59 -6 -35 -5 -39 14 -39 29 0 26
-28 -4 -40 -14 -5 -40 -7 -57 -4 -25 4 -29 3 -18 -5 28 -20 79 -13 105 15 33
35 60 26 51 -17 -4 -22 -2 -29 7 -27 6 3 13 17 15 31 3 23 -2 30 -32 42 -19 8
-44 15 -55 15 -17 0 -18 3 -8 29 9 25 8 33 -8 52 -11 11 -32 27 -47 35 -29 15
-105 19 -124 6z"/>
<path d="M2040 2935 c-39 -41 -116 -65 -195 -59 -37 3 -79 10 -94 15 -14 6
-21 6 -16 1 19 -17 78 -32 130 -32 71 0 135 24 175 65 19 19 32 35 29 35 -3 0
-16 -11 -29 -25z"/>
<path d="M2136 2260 c9 -37 37 -83 54 -88 10 -3 8 3 -7 19 -12 13 -28 40 -37
59 -10 22 -14 26 -10 10z"/>
<path d="M1241 2539 c-2 -27 -107 -170 -168 -226 -31 -29 -52 -53 -47 -53 5 0
33 23 62 51 86 83 169 205 158 232 -2 7 -5 5 -5 -4z"/>
<path d="M1702 2434 c-39 -67 -62 -94 -77 -94 -7 0 -35 16 -62 35 l-48 36 54
-51 c30 -27 58 -50 62 -50 4 0 24 28 45 63 21 34 44 72 52 85 8 12 11 22 8 22
-4 0 -19 -21 -34 -46z"/>
<path d="M1865 2451 c11 -5 45 -11 75 -14 42 -5 46 -4 20 2 -58 14 -118 22
-95 12z"/>
<path d="M1451 2371 c-23 -45 -51 -144 -50 -176 0 -11 10 18 22 65 12 47 30
98 40 114 10 15 16 30 13 33 -2 3 -14 -13 -25 -36z"/>
<path d="M1247 2273 c-27 -41 -31 -51 -14 -35 31 30 35 28 39 -15 3 -25 5 -13
8 35 3 39 5 72 5 72 -1 0 -18 -26 -38 -57z"/>
<path d="M1390 2131 c0 -80 42 -135 143 -185 39 -19 47 -27 34 -32 -9 -3 -24
-4 -32 0 -8 3 -15 1 -15 -4 0 -17 194 -16 234 0 15 6 2 9 -41 9 -115 2 -242
59 -291 131 -18 26 -23 46 -20 78 2 23 0 42 -4 42 -5 0 -8 -18 -8 -39z"/>
<path d="M1358 1997 l24 -25 -39 5 c-61 8 -34 -5 32 -16 33 -5 61 -8 63 -7 1
2 -21 18 -50 35 -47 30 -50 30 -30 8z"/>
<path d="M1419 1842 c69 -63 206 -117 339 -136 71 -10 47 11 -58 53 -52 20
-121 54 -154 75 -32 20 -60 35 -63 33 -5 -6 90 -67 152 -97 27 -13 44 -25 37
-28 -30 -10 -150 43 -262 114 -16 10 -13 5 9 -14z"/>
<path d="M1333 1801 c1 -14 13 -29 32 -38 l30 -16 -25 29 c-14 16 -28 33 -32
38 -4 5 -6 -1 -5 -13z"/>
<path d="M1438 1730 c52 -49 53 -63 2 -37 -36 19 -60 27 -60 21 0 -11 149 -74
236 -100 76 -23 108 -27 214 -27 85 0 136 4 160 14 53 22 130 70 169 107 l36
34 -48 -36 c-122 -89 -309 -116 -489 -70 -82 21 -134 45 -208 98 l-65 47 53
-51z"/>
<path d="M1618 1453 c-9 -10 -23 -32 -31 -49 -14 -28 -55 -68 -119 -117 -22
-18 -22 -18 10 0 43 24 95 76 132 136 31 49 34 59 8 30z"/>
<path d="M1670 1367 c0 -8 5 -28 11 -44 6 -15 12 -35 15 -43 7 -28 71 -190 78
-197 3 -4 -17 60 -45 143 -51 151 -59 170 -59 141z"/>
<path d="M1440 1172 c-1 -45 91 -212 117 -212 4 0 -6 13 -21 29 -15 16 -43 67
-62 113 -18 45 -33 77 -34 70z"/>
<path d="M994 1125 c-4 -8 -1 -21 5 -29 6 -7 9 -15 6 -18 -3 -3 3 -11 12 -19
16 -13 17 -12 4 4 -8 10 -9 17 -3 17 17 0 32 -34 27 -61 -3 -14 0 -11 6 8 13
36 6 74 -17 97 -20 20 -33 20 -40 1z"/>
<path d="M954 1060 c0 -11 2 -17 4 -15 8 7 62 -25 62 -37 0 -6 3 -8 7 -5 7 8
-32 54 -57 67 -12 6 -16 3 -16 -10z"/>
<path d="M954 997 c13 -19 14 -26 4 -29 -7 -3 1 -7 18 -10 27 -3 30 -2 22 11
-5 9 -21 24 -35 35 l-25 19 16 -26z"/>
<path d="M1133 984 c18 -10 27 -23 27 -39 0 -14 -4 -25 -10 -25 -5 0 -10 6
-10 14 0 8 -6 16 -13 19 -8 3 -14 -1 -14 -9 0 -7 3 -11 7 -9 4 2 7 -2 7 -10 0
-15 -11 -11 -39 13 -10 8 -18 11 -18 6 0 -11 52 -44 68 -44 15 0 42 29 42 46
0 20 -37 54 -57 54 -13 -1 -10 -5 10 -16z"/>
<path d="M1625 770 c-28 -7 -27 -8 12 -9 23 0 44 3 47 7 6 10 -21 11 -59 2z"/>
<path d="M1502 669 c2 -7 20 -17 39 -22 38 -10 52 -20 55 -41 2 -16 -40 -30
-59 -20 -8 5 -9 4 -2 -3 6 -6 25 -15 43 -21 l32 -11 0 55 0 54 -36 0 c-19 0
-45 5 -56 11 -16 9 -19 8 -16 -2z"/>
<path d="M1680 658 c-36 -9 -41 -12 -25 -18 11 -4 28 -3 37 1 9 5 22 8 29 7 6
-2 14 3 16 10 5 14 5 14 -57 0z"/>
<path d="M1692 589 c-19 -4 -39 -12 -45 -19 -10 -10 -4 -11 27 -7 36 6 66 22
55 30 -2 2 -19 0 -37 -4z"/>
<path d="M1893 458 c-34 -38 -38 -55 -4 -20 37 39 74 41 79 4 5 -30 -22 -59
-60 -67 -24 -6 -35 -2 -57 19 -15 15 -38 26 -52 25 -21 -1 -19 -3 14 -16 20
-9 37 -22 37 -29 0 -28 128 -18 163 13 15 14 19 15 15 3 -2 -8 -25 -23 -49
-33 -41 -17 -42 -17 -10 -12 50 8 81 31 81 60 0 32 -5 31 -47 -5 -39 -35 -82
-44 -45 -10 24 23 29 59 10 78 -19 19 -53 14 -75 -10z"/>
<path d="M1680 443 l-45 -13 43 4 c24 2 46 7 49 10 12 12 -3 12 -47 -1z"/>
<path d="M1579 432 c19 -11 38 -28 42 -38 6 -14 8 -11 8 14 1 27 -2 32 -23 32
-13 0 -33 3 -43 6 -10 3 -3 -3 16 -14z"/>
<path d="M1906 409 c-45 -34 -39 -40 7 -7 18 13 34 21 37 20 2 -2 6 1 8 7 6
18 -11 11 -52 -20z"/>
<path d="M1709 379 c-36 -36 -8 -46 50 -18 32 15 46 26 38 31 -23 15 -67 8
-88 -13z"/>
<path d="M1913 338 c1 -7 7 -16 12 -20 6 -4 -1 -8 -14 -8 -13 0 -22 -3 -18 -6
3 -3 19 -3 36 1 29 6 29 7 10 26 -22 22 -30 24 -26 7z"/>
<path d="M1770 314 c-30 -26 -31 -26 -46 -8 -9 11 -13 14 -9 7 7 -16 -29 -88
-52 -103 -12 -8 -13 -10 -3 -7 8 2 24 17 35 34 20 32 65 51 65 28 0 -30 26
-34 70 -12 24 12 45 28 48 35 6 19 -12 14 -53 -14 -46 -31 -64 -20 -41 24 9
17 21 32 28 35 9 4 9 6 1 6 -6 1 -26 -11 -43 -25z"/>
</g>
</svg>
